<?xml version="1.0" standalone="no"?>
<!DOCTYPE svg PUBLIC "-//W3C//DTD SVG 20010904//EN"
 "http://www.w3.org/TR/2001/REC-SVG-20010904/DTD/svg10.dtd">
<svg version="1.0" xmlns="http://www.w3.org/2000/svg"
 width="470.000000pt" height="310.000000pt" viewBox="0 0 470.000000 310.000000"
 preserveAspectRatio="xMidYMid meet">

<g transform="translate(0.000000,310.000000) scale(0.100000,-0.100000)"
fill="#000000" stroke="none">
<path d="M2085 3089 c-38 -5 -91 -16 -117 -25 -26 -8 -55 -14 -65 -13 -25 4
-117 -29 -173 -62 -14 -9 -60 -31 -70 -34 -3 -1 -18 -5 -35 -10 -16 -4 -45
-21 -63 -37 -18 -15 -37 -28 -43 -28 -6 0 -49 -33 -96 -72 -47 -40 -106 -89
-131 -109 -57 -47 -70 -69 -48 -81 14 -8 7 -21 -50 -86 -165 -193 -280 -427
-336 -685 -31 -147 -32 -437 0 -583 68 -313 196 -551 416 -770 127 -127 213
-191 367 -273 175 -92 404 -156 602 -168 97 -5 122 -12 99 -27 -5 -3 -27 0
-50 6 -53 13 -80 5 -61 -18 12 -14 34 -16 170 -11 86 2 165 10 177 16 11 6 33
11 47 11 14 0 34 4 44 10 10 5 38 10 62 11 24 2 58 11 74 21 17 10 41 18 53
18 13 0 35 9 48 19 13 11 48 22 77 26 68 10 250 128 351 228 39 40 98 97 131
129 77 72 87 84 119 140 15 25 33 52 41 58 8 7 27 37 42 69 15 31 35 67 45 81
27 39 107 246 118 309 6 31 18 92 26 136 19 99 29 278 16 301 -5 9 -6 32 -1
52 5 21 2 59 -7 101 -7 36 -14 84 -14 106 0 22 -6 49 -14 60 -7 11 -16 34 -19
50 -18 92 -111 308 -175 407 -64 99 -137 204 -144 206 -5 2 -28 25 -51 50 -74
82 -156 152 -176 152 -5 0 -15 9 -21 20 -6 11 -27 29 -48 40 -58 31 -76 44
-85 58 -4 6 -15 12 -23 12 -8 0 -31 11 -52 23 -20 13 -66 36 -102 52 -36 15
-74 31 -85 36 -81 34 -216 68 -292 72 -17 1 -35 6 -39 10 -10 10 -352 7 -439
-4z m348 -896 c40 -20 67 -70 67 -123 0 -85 -61 -143 -148 -143 -98 0 -172
116 -128 201 43 82 125 107 209 65z m-68 -276 c154 6 225 -6 255 -44 11 -14
20 -34 20 -44 0 -9 14 -51 30 -92 35 -87 37 -107 13 -136 -24 -28 -113 -42
-113 -17 0 10 -9 17 -27 17 l-28 2 27 4 c19 3 29 12 33 26 4 23 25 184 25 199
0 4 -109 8 -241 8 l-242 0 7 -67 c16 -166 15 -163 50 -164 30 -2 30 -2 4 -6
-17 -3 -28 -11 -28 -20 0 -13 -9 -15 -45 -10 -87 9 -106 60 -61 166 13 31 29
75 35 98 7 25 21 47 33 54 31 17 160 38 183 30 11 -3 43 -5 70 -4z m221 -104
c-2 -10 -7 -45 -11 -78 -11 -109 -13 -115 -46 -115 -19 0 -29 -5 -29 -15 0 -9
9 -15 25 -15 14 0 25 -4 25 -10 0 -6 -72 -10 -195 -10 -123 0 -195 4 -195 10
0 6 11 10 25 10 35 0 33 28 -2 32 -30 3 -29 0 -47 151 l-7 57 231 0 c216 0
231 -1 226 -17z m-698 -564 c51 -111 55 -111 67 7 8 84 15 98 44 89 25 -8 26
-21 9 -217 l-11 -138 -31 0 c-29 0 -33 5 -70 88 -22 48 -43 91 -47 95 -3 5 -4
-41 -1 -102 l5 -111 -44 0 -44 0 11 192 c7 106 12 194 13 196 1 1 13 2 27 2
23 0 31 -11 72 -101z m880 -111 c29 -117 53 -216 52 -220 0 -5 -17 -8 -39 -8
-37 0 -38 1 -47 43 -9 41 -10 42 -49 42 -39 0 -40 -1 -49 -42 -7 -34 -13 -43
-30 -43 -48 1 -48 6 -11 206 19 104 38 199 40 212 4 18 12 22 43 22 l37 0 53
-212z m319 -3 c29 -116 53 -214 53 -218 0 -5 -19 -7 -42 -5 -41 3 -43 4 -51
46 -8 41 -9 42 -47 42 -39 0 -50 -11 -50 -53 0 -36 -12 -45 -46 -35 l-31 8 39
202 c21 112 40 209 43 216 3 9 18 12 42 10 l37 -3 53 -210z m219 114 c55 -114
56 -113 69 26 6 60 11 75 24 75 44 -1 45 -8 30 -187 l-14 -168 -30 -3 c-29 -3
-32 1 -77 95 l-46 98 5 -112 6 -113 -47 0 c-47 0 -47 1 -42 28 3 15 8 99 12
187 3 88 8 163 11 168 2 4 15 7 27 7 20 0 31 -16 72 -101z m-955 4 c-2 -40 -1
-73 2 -73 2 0 21 25 41 56 26 38 42 54 52 50 9 -3 22 -6 31 -6 10 0 1 -20 -29
-62 -24 -35 -47 -68 -50 -74 -4 -6 17 -51 47 -100 54 -88 54 -89 32 -101 -12
-7 -25 -12 -29 -13 -5 0 -29 32 -55 72 l-48 71 -3 -39 c-1 -21 -5 -58 -8 -81
-5 -40 -8 -43 -35 -43 l-29 0 0 68 c0 37 3 131 7 210 l6 143 36 -3 36 -3 -4
-72z m-641 32 l0 -35 -50 0 -50 0 0 -66 0 -66 40 7 40 7 0 -36 c0 -35 -1 -36
-40 -36 l-40 0 0 -51 0 -52 61 7 62 7 -7 -32 c-3 -18 -8 -34 -10 -36 -2 -2
-40 -1 -84 3 -70 6 -81 9 -86 28 -3 11 -6 98 -6 192 l0 171 73 10 c39 6 78 11
85 12 7 0 12 -12 12 -34z m-289 -4 c35 -36 38 -77 8 -115 -12 -15 -20 -28 -18
-30 2 -2 14 -9 27 -15 32 -17 62 -70 62 -109 0 -79 -56 -122 -157 -122 l-60 0
-6 143 c-12 246 -11 265 16 270 66 13 99 7 128 -22z"/>
<path d="M2678 1185 c-3 -6 -9 -35 -13 -66 l-7 -57 26 5 c20 4 25 10 21 27 -3
11 -9 39 -13 61 -4 22 -11 35 -14 30z"/>
<path d="M2982 1134 c-6 -37 -10 -69 -9 -71 2 -1 13 0 26 4 21 5 22 10 16 51
-13 86 -21 90 -33 16z"/>
<path d="M1338 1213 c5 -59 8 -60 30 -24 24 39 19 61 -12 61 -19 0 -22 -4 -18
-37z"/>
<path d="M1350 1029 c0 -51 3 -59 18 -59 11 0 27 9 37 20 17 19 17 23 3 54 -9
18 -26 36 -37 39 -20 5 -21 1 -21 -54z"/>
<path d="M1101 2498 c-10 -28 -9 -30 13 -22 18 7 21 29 6 39 -6 3 -14 -4 -19
-17z"/>
<path d="M1052 641 c13 -21 28 -19 28 5 0 8 -9 14 -20 14 -17 0 -19 -3 -8 -19z"/>
<path d="M1090 594 c0 -3 16 -26 36 -50 29 -35 39 -42 50 -33 21 17 17 24 -21
42 -20 9 -38 24 -41 32 -6 14 -24 21 -24 9z"/>
<path d="M1234 438 c-4 -6 5 -21 21 -34 38 -30 44 -23 12 16 -17 20 -28 26
-33 18z"/>
<path d="M1658 143 c6 -2 18 -2 25 0 6 3 1 5 -13 5 -14 0 -19 -2 -12 -5z"/>
<path d="M1970 59 c0 -7 -11 -8 -30 -4 -18 4 -30 3 -30 -4 0 -5 17 -13 38 -16
20 -4 45 -9 55 -12 22 -6 35 26 16 38 -19 12 -49 11 -49 -2z"/>
</g>
</svg>
