<?xml version="1.0" standalone="no"?>
<!DOCTYPE svg PUBLIC "-//W3C//DTD SVG 20010904//EN"
 "http://www.w3.org/TR/2001/REC-SVG-20010904/DTD/svg10.dtd">
<svg version="1.0" xmlns="http://www.w3.org/2000/svg"
 width="457.000000pt" height="309.000000pt" viewBox="0 0 457.000000 309.000000"
 preserveAspectRatio="xMidYMid meet">

<g transform="translate(0.000000,309.000000) scale(0.100000,-0.100000)"
fill="#000000" stroke="none">
<path d="M1350 1880 l0 -410 203 0 c271 0 325 17 384 118 25 41 28 57 28 132
0 68 -4 92 -21 120 -20 34 -20 36 -2 75 14 31 18 59 16 126 -3 75 -7 92 -33
135 -20 31 -47 58 -75 74 -43 24 -54 25 -232 28 l-188 4 0 -176 0 -176 149 0
c82 0 161 4 175 10 59 22 70 113 19 164 -25 25 -30 26 -144 26 l-119 0 0 -60
c0 -53 2 -60 20 -60 17 0 20 7 20 40 l0 40 89 0 c102 0 121 -10 121 -66 0 -47
-23 -54 -171 -54 l-119 0 0 136 0 136 158 -4 c178 -4 216 -16 261 -83 37 -55
41 -173 9 -236 l-24 -47 23 -28 c44 -55 40 -188 -8 -256 -12 -16 -39 -38 -62
-51 -38 -20 -59 -22 -239 -25 l-198 -4 0 391 c0 384 0 391 -20 391 -20 0 -20
-7 -20 -410z"/>
<path d="M2027 2283 c-4 -3 -7 -188 -7 -410 l0 -403 270 0 270 0 0 100 0 100
-165 0 -165 0 0 35 c0 28 -4 35 -20 35 -18 0 -20 -7 -20 -55 l0 -55 163 -2
162 -3 3 -57 3 -58 -226 0 -225 0 0 390 c0 372 -1 390 -18 390 -10 0 -22 -3
-25 -7z"/>
<path d="M2105 2277 c-3 -7 -4 -102 -3 -212 l3 -200 158 -3 157 -3 0 26 0 25
-135 0 -135 0 0 165 0 165 180 0 180 0 0 -55 0 -55 -120 0 c-113 0 -120 -1
-120 -20 0 -19 7 -20 145 -20 l146 0 -3 98 -3 97 -223 3 c-175 2 -224 0 -227
-11z"/>
<path d="M2976 1995 c159 -162 290 -295 291 -295 2 0 3 115 3 255 0 248 -1
255 -20 255 -19 0 -20 -7 -20 -200 0 -110 -3 -200 -6 -200 -3 0 -111 108 -241
240 -202 207 -239 240 -265 240 -27 0 -4 -26 258 -295z"/>
<path d="M3140 2117 c0 -172 0 -174 25 -197 l25 -23 0 176 0 177 60 0 60 0 0
-370 c0 -304 -2 -370 -13 -370 -8 0 -132 122 -276 270 -145 149 -267 270 -272
270 -5 0 -9 -124 -9 -290 l0 -290 65 0 65 0 0 173 c0 156 -2 176 -18 190 -10
10 -22 17 -25 17 -4 0 -7 -76 -7 -170 0 -144 -2 -170 -15 -170 -13 0 -15 31
-15 222 l0 223 243 -243 c230 -230 244 -242 280 -242 l37 0 0 410 0 410 -105
0 -105 0 0 -173z"/>
<path d="M2660 1861 l0 -391 25 0 25 0 0 337 0 338 280 -280 c253 -253 280
-277 280 -250 0 25 -43 72 -297 329 -164 166 -301 303 -305 304 -5 2 -8 -172
-8 -387z"/>
<path d="M1512 2189 c3 -24 6 -24 134 -29 93 -4 136 -9 148 -19 46 -39 61
-122 32 -179 -30 -58 -44 -62 -228 -62 l-168 0 0 -25 0 -25 169 0 c156 0 170
-2 195 -21 66 -52 74 -146 17 -203 l-31 -31 -155 -3 -155 -3 0 90 0 91 134 0
c109 0 138 -3 150 -16 22 -21 20 -50 -4 -74 -17 -17 -33 -20 -110 -20 l-90 0
0 40 c0 33 -3 40 -20 40 -18 0 -20 -7 -20 -60 l0 -60 121 0 c120 0 121 0 150
29 33 34 38 75 14 121 -21 40 -64 50 -227 50 l-138 0 0 -140 0 -140 143 0
c200 1 243 14 295 90 41 60 25 166 -32 219 l-26 25 29 30 c55 59 66 143 29
216 -37 72 -69 84 -226 89 l-134 3 4 -23z"/>
<path d="M2190 2075 l0 -135 135 0 135 0 0 -55 0 -55 -177 -2 -178 -3 0 -140
0 -140 185 0 c184 0 185 0 188 23 l3 22 -165 0 -166 0 0 95 0 95 178 2 177 3
0 100 0 100 -137 3 -138 3 0 89 0 90 120 0 c113 0 120 1 120 20 0 19 -7 20
-140 20 l-140 0 0 -135z"/>
<path d="M1350 1110 l0 -260 65 0 65 0 0 108 0 108 67 84 c36 47 82 104 101
128 29 36 32 42 16 42 -13 0 -54 -44 -117 -124 l-97 -124 0 -96 0 -96 -35 0
-35 0 0 245 c0 211 -2 245 -15 245 -13 0 -15 -36 -15 -260z"/>
<path d="M1400 1254 c0 -102 2 -115 15 -104 11 9 15 35 15 101 0 53 4 89 10
89 6 0 10 -31 10 -72 0 -65 1 -70 15 -52 9 12 14 43 15 87 l0 67 -40 0 -40 0
0 -116z"/>
<path d="M1508 1229 l-108 -139 0 -95 c0 -78 3 -95 15 -95 12 0 15 17 15 93
l0 92 86 110 c116 150 113 147 163 143 l43 -3 -102 -128 -101 -128 66 -90 c37
-49 74 -89 82 -89 17 0 15 3 -54 97 -29 40 -53 77 -53 82 0 5 19 33 43 63 24
29 74 92 111 141 l68 87 -84 -1 -83 0 -107 -140z"/>
<path d="M2041 1353 c-15 -29 -221 -492 -221 -498 0 -3 32 -5 71 -5 69 0 70 0
80 30 11 30 12 30 86 30 55 0 74 3 71 13 -3 8 -31 13 -82 15 l-77 3 -10 -31
c-10 -27 -15 -30 -55 -30 l-44 0 14 33 c100 234 191 427 200 424 10 -3 206
-431 206 -449 0 -5 -16 -8 -36 -8 -33 0 -37 3 -59 55 l-25 55 -114 0 -114 0
-16 -40 c-19 -49 -19 -50 -2 -50 7 0 19 14 26 30 l12 30 98 0 98 0 22 -55 22
-55 64 0 c42 0 64 4 64 12 0 6 -50 123 -112 260 -99 220 -114 248 -134 248
-13 0 -27 -8 -33 -17z"/>
<path d="M2496 1133 c-59 -131 -109 -248 -113 -260 -5 -22 -3 -23 61 -23 63 0
66 1 81 30 15 29 18 30 85 30 56 0 70 3 70 15 0 12 -15 15 -79 15 -79 0 -79 0
-90 -30 -9 -27 -14 -30 -50 -30 -23 0 -41 3 -41 7 0 21 197 453 206 453 6 0
46 -80 89 -177 43 -98 89 -202 102 -230 l23 -53 -38 0 c-36 0 -39 3 -65 55
l-27 55 -110 0 -110 0 -20 -40 c-24 -47 -24 -50 -4 -50 9 0 21 14 27 30 l11
30 97 0 98 0 25 -55 25 -55 65 0 c37 0 66 3 65 8 0 4 -51 120 -113 257 -101
223 -116 250 -138 253 -24 3 -31 -10 -132 -235z"/>
<path d="M3070 1233 c74 -76 155 -160 182 -188 l48 -50 0 163 c0 137 -2 162
-15 162 -13 0 -15 -21 -15 -127 l-1 -128 -147 153 c-90 93 -154 152 -166 152
-14 0 20 -41 114 -137z"/>
<path d="M3220 1261 c0 -84 3 -111 15 -121 13 -11 15 0 15 94 l0 106 35 0 35
0 0 -232 0 -233 -175 175 -175 175 0 -188 0 -188 38 3 37 3 3 95 c3 100 -2
140 -18 140 -6 0 -10 -43 -10 -105 0 -63 -4 -105 -10 -105 -6 0 -10 52 -10
137 l0 138 153 -153 c105 -105 159 -152 175 -152 l22 0 0 260 0 260 -65 0 -65
0 0 -109z"/>
<path d="M2920 1097 c0 -195 3 -248 13 -245 9 4 13 58 15 217 l2 212 175 -178
c124 -127 174 -172 175 -158 0 13 -66 86 -190 210 l-190 190 0 -248z"/>
<path d="M2051 1259 c-10 -24 -39 -90 -64 -146 l-46 -103 105 0 c57 0 104 2
104 4 0 2 -18 41 -39 87 l-39 84 -20 -45 c-32 -74 -35 -90 -19 -90 8 0 20 15
27 33 l11 32 19 -35 c11 -19 19 -38 20 -42 0 -5 -27 -8 -60 -8 -33 0 -60 4
-60 9 0 5 14 41 30 80 17 40 35 84 41 99 10 25 16 15 86 -146 45 -101 81 -172
89 -172 8 0 14 2 14 5 0 6 -171 388 -176 394 -2 2 -12 -16 -23 -40z"/>
<path d="M2562 1161 c-34 -76 -62 -142 -62 -145 0 -3 45 -6 100 -6 55 0 100 4
100 9 0 4 -16 43 -36 86 -39 86 -38 86 -73 -3 -17 -43 -18 -52 -6 -52 8 0 21
15 29 33 l14 32 16 -37 c9 -21 16 -40 16 -43 0 -3 -27 -5 -61 -5 -45 0 -60 3
-56 13 47 117 81 196 84 193 2 -2 36 -77 76 -167 47 -107 79 -165 89 -167 13
-2 -5 47 -71 193 -49 107 -90 198 -93 200 -3 3 -33 -57 -66 -134z"/>
<path d="M1590 1078 c0 -6 32 -53 70 -105 l70 -93 -47 0 -48 1 -65 87 c-43 58
-66 81 -68 70 -2 -9 25 -55 59 -102 l63 -86 78 0 c43 0 78 2 78 5 0 11 -173
235 -181 235 -5 0 -9 -5 -9 -12z"/>
</g>
</svg>
